<?xml version="1.0" encoding="UTF-8"?>
<svg id="Calque_1" data-name="Calque 1" xmlns="http://www.w3.org/2000/svg" viewBox="0 0 492.62 258.72">
  <defs>
    <style>
      .cls-1 {
        fill: #e6e6e6;
      }

      .cls-2, .cls-3 {
        fill: gray;
      }

      .cls-3 {
        opacity: .9;
      }

      .cls-4 {
        fill: #ccc;
      }

      .cls-5 {
        fill: #1a1a1a;
      }

      .cls-6 {
        fill: #f2f2f2;
      }
    </style>
  </defs>
  <g id="fish1">
    <g id="poisky1">
      <path class="cls-3" d="M378.96,140.17c-17.1,12.67-27.29,28.59-27.29,45.87,0,15.42,8.1,29.75,21.99,41.66,39.68-9.87,59.06-24.14,67.66-41.66l-35.48-.88c-1.2,0-2.18-.53-2.18-1.19h0c0-.24,.35-.43,.79-.43h46.75c-6.92-17.65-33.75-33.07-72.26-43.37"/>
      <path class="cls-2" d="M354.82,181.05c0-15.34,8.4-29.57,22.74-41.33-30.81-7.8-68.63-12.4-109.5-12.4-94.51,0-172.7,24.57-185.65,56.52,12.95,31.95,91.13,56.52,185.65,56.52,43.32,0,83.2-5.16,114.95-13.83-17.64-12.48-28.19-28.29-28.19-45.48Z"/>
      <path class="cls-4" d="M119.22,192l-71.51-45.91s-14.74,5.01-20.32,12.93c-5.57,7.92-4.18,14.05-4.18,14.05,0,0-3.72-.66-5.57,6.73-1.86,7.39,2.79,11.87,2.79,11.87,0,0-4.3,4.16-5.22,7.32-.93,3.17,.93,18.34,.93,18.34l103.09-25.33Z"/>
      <path class="cls-2" d="M121.74,190.98l-59.63-34.26s-12.29,3.74-16.94,9.65c-4.65,5.91-3.49,10.49-3.49,10.49,0,0-3.1-.49-4.65,5.02s2.32,8.86,2.32,8.86c0,0-3.58,3.1-4.36,5.46s.77,13.69,.77,13.69l85.96-18.9Z"/>
      <path d="M312.06,129.22l-34.83-20.26s-50.59,2.12-67.29,4.43c-16.95,2.35-66.97,14.25-66.97,14.25l17.57,11.32s59.5-8.95,76.47-10.21c21.03-1.56,75.04,.47,75.04,.47Z"/>
      <polygon class="cls-5" points="175.27 190.06 222.85 178.62 296.86 178.84 242.23 191.92 209.63 190.94 175.27 190.06"/>
      <circle class="cls-6" cx="389" cy="163.42" r="9.02"/>
      <circle class="cls-5" cx="389" cy="163.42" r="7.02"/>
    </g>
    <g id="sky1bulles">
      <circle class="cls-1" cx="404.57" cy="48.9" r="13.57"/>
      <circle class="cls-4" cx="404.57" cy="48.9" r="10.66"/>
      <circle class="cls-4" cx="392.3" cy="86.38" r="10.66"/>
      <circle class="cls-4" cx="452.71" cy="125.15" r="10.66"/>
      <circle class="cls-1" cx="426.54" cy="73.78" r="10.66"/>
      <circle class="cls-1" cx="418.79" cy="109.64" r="10.66"/>
      <circle class="cls-4" cx="368.39" cy="35.98" r="13.57"/>
      <circle class="cls-1" cx="368.39" cy="35.98" r="10.66"/>
      <path class="cls-4" d="M357.08,49.22c-7.49,0-13.57,6.08-13.57,13.57s6.08,13.57,13.57,13.57,13.57-6.08,13.57-13.57-6.08-13.57-13.57-13.57Zm0,24.23c-5.89,0-10.66-4.77-10.66-10.66s4.77-10.66,10.66-10.66,10.66,4.77,10.66,10.66-4.77,10.66-10.66,10.66Z"/>
      <path class="cls-1" d="M329.62,15.3c-7.49,0-13.57,6.08-13.57,13.57s6.08,13.57,13.57,13.57,13.57-6.08,13.57-13.57-6.08-13.57-13.57-13.57Zm0,24.23c-5.89,0-10.66-4.77-10.66-10.66s4.77-10.66,10.66-10.66,10.66,4.77,10.66,10.66-4.77,10.66-10.66,10.66Z"/>
    </g>
  </g>
</svg>